# xmcd
#
# Track frame offsets: 
#        150
#        7425
#        9337
#        22115
#        41852
#        43407
#        59109
#        60446
#        79900
#        81190
#        93168
#        109214
#        112120
#        130974
#        132235
#        147117
#        148534
#        159081
#        161599
#        183909
#        186199
#        203798
#        205896
#        221534
#        224013
#        238566
#        241030
#        260956
#        263660
#        277915
#        279590
#        295044
#        298628
#        318687
#
# Disc length: 4255 seconds
#
# Revision: 0
# Processed by: cddbd v1.5.2PL0 Copyright (c) Steve Scherf et al.
# Submitted via: ExactAudioCopy v1.0b3
#
DISCID=12109d22
DTITLE=Al Cook - Mississippi 1930 (A Pictoral Journey To The Land Wher
DTITLE=e the Blues Begn)
DYEAR=2014
DGENRE=Blues
TTITLE0=Mississippi 1930 Intro
TTITLE1=Comment 1
TTITLE2=Mississippi Blues Part 1 (Charley Patton's Blues)
TTITLE3=Race Horse Blues
TTITLE4=Comment 2
TTITLE5=Cannonball Blues
TTITLE6=Comment 3
TTITLE7=Jake Liquor Blues
TTITLE8=Comment 4
TTITLE9=Mississippi Women Blues
TTITLE10=Mississippi Blues Part 2
TTITLE11=Comment 5
TTITLE12=Death Bell Blues
TTITLE13=Comment 6
TTITLE14=Hard Delta Blues
TTITLE15=Comment 7
TTITLE16=Magnolia Blues
TTITLE17=Comment 8
TTITLE18=Magnum 45 Blues
TTITLE19=Comment 9
TTITLE20=I'm Wild About You Baby
TTITLE21=Comment 10
TTITLE22=Black Hearted Woman Blues
TTITLE23=Comment 11
TTITLE24=Reckless Woman Blues
TTITLE25=Comment 12
TTITLE26=Southbound Train Blues
TTITLE27=Comment 13
TTITLE28=That's All Right
TTITLE29=Comment 14
TTITLE30=Pinewood Blues
TTITLE31=Comment 15
TTITLE32=No More Good Water
TTITLE33=Farewell
EXTD=
EXTT0=
EXTT1=
EXTT2=
EXTT3=
EXTT4=
EXTT5=
EXTT6=
EXTT7=
EXTT8=
EXTT9=
EXTT10=
EXTT11=
EXTT12=
EXTT13=
EXTT14=
EXTT15=
EXTT16=
EXTT17=
EXTT18=
EXTT19=
EXTT20=
EXTT21=
EXTT22=
EXTT23=
EXTT24=
EXTT25=
EXTT26=
EXTT27=
EXTT28=
EXTT29=
EXTT30=
EXTT31=
EXTT32=
EXTT33=
PLAYORDER=
